<!DOCTYPE svg PUBLIC "-//W3C//DTD SVG 1.1//EN" "http://www.w3.org/Graphics/SVG/1.1/DTD/svg11.dtd">
<!-- Uploaded to: SVG Repo, www.svgrepo.com, Transformed by: SVG Repo Mixer Tools -->
<svg height="800px" width="800px" version="1.1" id="Layer_1" xmlns="http://www.w3.org/2000/svg" xmlns:xlink="http://www.w3.org/1999/xlink" viewBox="0 0 512 512" xml:space="preserve" fill="#000000">
<g id="SVGRepo_bgCarrier" stroke-width="0"/>
<g id="SVGRepo_tracerCarrier" stroke-linecap="round" stroke-linejoin="round"/>
<g id="SVGRepo_iconCarrier"> <path style="fill:#daccff;" d="M256,512c-8.657,0-15.675-7.018-15.675-15.675V255.968c0-8.657,7.018-15.675,15.675-15.674 c8.658-0.001,15.676,7.017,15.676,15.675v240.356C271.676,504.982,264.658,512,256,512z"/> <path style="fill:#FF0536;" d="M352.063,39.728c-52.969-52.969-139.157-52.97-192.127,0c-20.562,20.562-33.136,46.13-37.734,72.817 c-7.248,42.061,5.328,86.902,37.734,119.311c52.97,52.969,139.158,52.968,192.127,0c20.563-20.563,33.137-46.131,37.735-72.818 C397.046,116.975,384.471,72.135,352.063,39.728z"/> <path style="fill:#C10019;" d="M352.063,39.728c-52.969-52.969-139.157-52.97-192.127,0c-20.562,20.562-33.136,46.13-37.734,72.817 c3.971,8.409,9.422,16.293,16.376,23.247c32.424,32.424,84.997,32.425,117.421,0.001c32.425-32.425,84.998-32.426,117.422-0.001 c6.954,6.954,12.406,14.839,16.377,23.248C397.046,116.975,384.471,72.135,352.063,39.728z"/> <path style="opacity:0.15;enable-background:new ;" d="M352.063,39.728C325.579,13.243,290.79,0,256,0v512 c8.658,0,15.676-7.018,15.676-15.675v-225.65c29.395-3.386,57.888-16.322,80.388-38.821c20.563-20.563,33.137-46.131,37.735-72.818 C397.046,116.975,384.471,72.135,352.063,39.728z"/> </g>
</svg>